<svg width="38" height="29" viewBox="0 0 38 29" fill="none" xmlns="http://www.w3.org/2000/svg">
<path fill-rule="evenodd" clip-rule="evenodd" d="M19.05 21.0006C19.3939 21.0006 19.7236 20.8636 19.9667 20.6199C20.2099 20.3761 20.3465 20.0454 20.3465 19.7007V4.64011L25.9107 10.2219C26.0313 10.3427 26.1744 10.4386 26.3318 10.504C26.4893 10.5694 26.6581 10.6031 26.8286 10.6031C26.9991 10.6031 27.1679 10.5694 27.3253 10.504C27.4828 10.4386 27.6259 10.3427 27.7465 10.2219C27.867 10.101 27.9626 9.95752 28.0279 9.79961C28.0931 9.6417 28.1267 9.47246 28.1267 9.30154C28.1267 9.13062 28.0931 8.96137 28.0279 8.80346C27.9626 8.64555 27.867 8.50207 27.7465 8.38121L19.9679 0.581844C19.8475 0.460789 19.7044 0.364746 19.5469 0.299214C19.3894 0.233683 19.2206 0.199951 19.05 0.199951C18.8795 0.199951 18.7107 0.233683 18.5531 0.299214C18.3956 0.364746 18.2526 0.460789 18.1322 0.581844L10.3536 8.38121C10.1101 8.6253 9.97339 8.95635 9.97339 9.30154C9.97339 9.64672 10.1101 9.97778 10.3536 10.2219C10.597 10.4659 10.9272 10.6031 11.2715 10.6031C11.6157 10.6031 11.9459 10.4659 12.1893 10.2219L17.7536 4.64011V19.7007C17.7536 20.0454 17.8902 20.3761 18.1333 20.6199C18.3764 20.8636 18.7062 21.0006 19.05 21.0006ZM0.900024 27.5001C0.900024 27.1553 1.03661 26.8247 1.27974 26.5809C1.52287 26.3371 1.85262 26.2002 2.19645 26.2002H35.9036C36.2474 26.2002 36.5772 26.3371 36.8203 26.5809C37.0634 26.8247 37.2 27.1553 37.2 27.5001C37.2 27.8448 37.0634 28.1754 36.8203 28.4192C36.5772 28.663 36.2474 28.7999 35.9036 28.7999H2.19645C1.85262 28.7999 1.52287 28.663 1.27974 28.4192C1.03661 28.1754 0.900024 27.8448 0.900024 27.5001Z" fill="#FEFDF9"/>
</svg>
