<svg width="18" height="18" viewBox="0 0 18 18" fill="none" xmlns="http://www.w3.org/2000/svg">
<path d="M14.71 3.28997C14.6781 2.60538 14.393 1.95705 13.91 1.4708C13.6526 1.21055 13.3463 1.00374 13.0086 0.862278C12.671 0.720813 12.3088 0.64748 11.9427 0.646494C11.5767 0.645509 11.214 0.716892 10.8757 0.856537C10.5373 0.996183 10.2299 1.20134 9.97106 1.4602C9.71224 1.71907 9.50715 2.02654 9.36758 2.36494C9.22801 2.70334 9.1567 3.066 9.15776 3.43205C9.15883 3.7981 9.23224 4.16033 9.37377 4.49792C9.51531 4.8355 9.72218 5.14178 9.98249 5.39914L5.39999 9.98247C5.14263 9.72216 4.83636 9.51529 4.49877 9.37375C4.16119 9.23222 3.79896 9.15881 3.4329 9.15774C3.06685 9.15668 2.7042 9.22799 2.3658 9.36756C2.0274 9.50713 1.71992 9.71222 1.46106 9.97104C1.20219 10.2298 0.997037 10.5373 0.857392 10.8756C0.717746 11.214 0.646364 11.5767 0.647349 11.9427C0.648334 12.3088 0.721667 12.671 0.863132 13.0086C1.0046 13.3462 1.2114 13.6526 1.47166 13.91C1.97666 14.415 2.62999 14.675 3.29083 14.71C3.32583 15.3708 3.58583 16.0233 4.09083 16.5291C4.34824 16.7894 4.65456 16.9962 4.99218 17.1377C5.32979 17.2791 5.69204 17.3525 6.05809 17.3534C6.42414 17.3544 6.78678 17.2831 7.12515 17.1434C7.46352 17.0038 7.77095 16.7986 8.02976 16.5397C8.28858 16.2809 8.49366 15.9734 8.63324 15.635C8.77281 15.2966 8.84412 14.9339 8.84305 14.5679C8.84199 14.2018 8.76858 13.8396 8.62704 13.502C8.48551 13.1644 8.27864 12.8582 8.01833 12.6008L12.6008 8.01831C12.8582 8.27862 13.1645 8.48549 13.502 8.62702C13.8396 8.76856 14.2019 8.84197 14.5679 8.84303C14.934 8.8441 15.2966 8.77279 15.635 8.63322C15.9734 8.49364 16.2809 8.28856 16.5398 8.02974C16.7986 7.77093 17.0038 7.4635 17.1434 7.12513C17.2831 6.78676 17.3545 6.42412 17.3535 6.05807C17.3525 5.69202 17.2792 5.32977 17.1377 4.99215C16.9962 4.65454 16.7894 4.34822 16.5292 4.09081C16.0432 3.60727 15.3948 3.32181 14.71 3.28997Z" fill="#31251C"/>
</svg>
